<svg xmlns="http://www.w3.org/2000/svg" viewBox="0 0 84.86 58.06"><defs><style>.cls-1{fill:#fff;}</style></defs><g id="Layer_2" data-name="Layer 2"><g id="Layer_1-2" data-name="Layer 1"><path class="cls-1" d="M83.32,19.51h-.16c-2.35-5.72-5.09-10.45-8.3-13.58l-.12-.11a12.88,12.88,0,0,0-9-4A11.1,11.1,0,0,0,57.43,4.9C54.22,8,51.29,13.39,50.68,23.28c0,.28,0,.57,0,.86l0,.6a35,35,0,0,0,.52,7.18h-34V51.2c0,3.83.64,4.76,3.13,6.73V58H0v-.11C2.49,56,3.13,55,3.13,51.2V7C3.13,3.13,2.49,2.21,0,.23V.12H20.28V.23c-2.49,2-3.13,2.9-3.13,6.72V26.24H32.53l.2-1.45c1.57-8.54,5.66-14.68,11.82-19A32.4,32.4,0,0,1,61.68,0c.56,0,1.11,0,1.66,0,7.81,0,11.47,2.34,14.21,2.34a5.91,5.91,0,0,0,3.19-.88h0l.42-.26c.49-.32,1-.72,1.58-1.19Z"/><path class="cls-1" d="M52.18.12A32.65,32.65,0,0,0,44.3,3.88c-.38-1.51-1.22-2.35-2.85-3.65V.12Z"/><path class="cls-1" d="M41.45,57.93V58h7.71a28.26,28.26,0,0,1-5.37-2.5A9.1,9.1,0,0,1,41.45,57.93Z"/><path class="cls-1" d="M84.86,40.47C79.61,59.52,59.85,58,59.85,58a29.2,29.2,0,0,1-15.33-4.3A25.61,25.61,0,0,1,32.88,36.2a1.57,1.57,0,0,1,0-.23H52.17a21.15,21.15,0,0,0,5.14,8.53c3.28,3.4,7.94,5.14,13.46,4.8,6.29-.39,10.37-2.69,13.61-9.08Z"/></g></g></svg>